<mxfile host="app.diagrams.net" modified="2024-04-25T16:11:03.642Z" agent="Mozilla/5.0 (Windows NT 10.0; Win64; x64; rv:125.0) Gecko/20100101 Firefox/125.0" version="24.3.0" etag="Q-HchplViMQzfr2aaCK5" type="github">
  <diagram name="Seite-1" id="lBsKqySSM6oOxTu_qRCb">
    <mxGraphModel>
      <root>
        <mxCell id="0" />
        <mxCell id="1" parent="0" />
      </root>
    </mxGraphModel>
  </diagram>
</mxfile>
